  0
SECTION
  2
HEADER
  9
$ACADVER
  1
AC1015
  9
$HANDSEED
  5
      3F
  0
ENDSEC
  0
SECTION
  2
TABLES
  0
TABLE
  2
VPORT
  5
1
100
AcDbSymbolTable
 70
     1
  0
VPORT
  5
2
100
AcDbSymbolTableRecord
100
AcDbViewportTableRecord
  2
*Active
 70
     0
 12
11
 22
2000
 40
4400
 41
0.005500000000000001
  0
ENDTAB
  0
TABLE
  2
LTYPE
  5
3
100
AcDbSymbolTable
 70
     2
  0
LTYPE
  5
4
100
AcDbSymbolTableRecord
100
AcDbLinetypeTableRecord
  2
ByBlock
 70
     0
  0
LTYPE
  5
5
100
AcDbSymbolTableRecord
100
AcDbLinetypeTableRecord
  2
ByLayer
 70
     0
  0
ENDTAB
  0
TABLE
  2
LAYER
  5
6
100
AcDbSymbolTable
 70
     1
  0
LAYER
  5
7
100
AcDbSymbolTableRecord
100
AcDbLayerTableRecord
  2
0
 70
     0
390

  0
ENDTAB
  0
TABLE
  2
STYLE
  5
8
100
AcDbSymbolTable
 70
     1
  0
STYLE
  5
9
100
AcDbSymbolTableRecord
100
AcDbTextStyleTableRecord
  2
Standard
 70
     0
 41
1.0
  3
txt
  0
ENDTAB
  0
TABLE
  2
VIEW
  5
A
100
AcDbSymbolTable
 70
     0
  0
ENDTAB
  0
TABLE
  2
UCS
  5
B
100
AcDbSymbolTable
 70
     0
  0
ENDTAB
  0
TABLE
  2
APPID
  5
C
100
AcDbSymbolTable
 70
     2
  0
APPID
  5
D
100
AcDbSymbolTableRecord
100
AcDbRegAppTableRecord
  2
ACAD
 70
     0
  0
APPID
  5
E
100
AcDbSymbolTableRecord
100
AcDbRegAppTableRecord
  2
PE_URL
 70
     0
  0
ENDTAB
  0
TABLE
  2
DIMSTYLE
  5
F
100
AcDbSymbolTable
 70
     0
100
AcDbDimStyleTable
  0
ENDTAB
  0
TABLE
  2
BLOCK_RECORD
  5
10
100
AcDbSymbolTable
 70
2
  0
BLOCK_RECORD
  5
11
100
AcDbSymbolTableRecord
100
AcDbBlockTableRecord
  2
*Model_Space
  0
BLOCK_RECORD
  5
12
100
AcDbSymbolTableRecord
100
AcDbBlockTableRecord
  2
*Paper_Space
  0
ENDTAB
  0
ENDSEC
  0
SECTION
  2
BLOCKS
  0
BLOCK
  5
13
100
AcDbEntity
100
AcDbBlockBegin
  2
*Model_Space
  0
ENDBLK
  5
14
100
AcDbEntity
100
AcDbBlockEnd
  0
BLOCK
  5
15
100
AcDbEntity
100
AcDbBlockBegin
  2
*Paper_Space
  0
ENDBLK
  5
16
100
AcDbEntity
100
AcDbBlockEnd
  0
ENDSEC
  0
SECTION
  2
ENTITIES
  0
LWPOLYLINE
  5
17
100
AcDbEntity
  8
PANEL
100
AcDbPolyline
 90
4
 70
1
 10
0
 20
0
 10
22
 20
0
 10
22
 20
4000
 10
0
 20
4000
  0
LWPOLYLINE
  5
18
100
AcDbEntity
  8
0
100
AcDbPolyline
 90
4
 70
1
 10
22
 20
0
 10
-1.574562702444382E-11
 20
0
 10
-1.564615104143741E-11
 20
559.0000000000031
 10
22.0000000000001
 20
559.0000000000031
  0
CIRCLE
  5
19
100
AcDbEntity
  8
0
100
AcDbCircle
 10
15.20000000000003
 20
99.5000000000029
 30
0
 40
2.100000000000009
  0
CIRCLE
  5
1A
100
AcDbEntity
  8
0
100
AcDbCircle
 10
15.20000000000006
 20
219.5000000000029
 30
0
 40
2.100000000000009
  0
CIRCLE
  5
1B
100
AcDbEntity
  8
0
100
AcDbCircle
 10
15.20000000000007
 20
339.500000000003
 30
0
 40
2.100000000000009
  0
CIRCLE
  5
1C
100
AcDbEntity
  8
0
100
AcDbCircle
 10
15.2000000000001
 20
459.5000000000029
 30
0
 40
2.100000000000009
  0
LWPOLYLINE
  5
1D
100
AcDbEntity
  8
0
100
AcDbPolyline
 90
4
 70
1
 10
21.99999999998451
 20
561.5000000000031
 10
-1.548983163957018E-11
 20
561.5000000000032
 10
-1.267608240596019E-11
 20
1120.500000000003
 10
21.99999999998732
 20
1120.500000000003
  0
CIRCLE
  5
1E
100
AcDbEntity
  8
0
100
AcDbCircle
 10
6.799999999987108
 20
661.0000000000032
 30
0
 40
2.100000000000009
  0
CIRCLE
  5
1F
100
AcDbEntity
  8
0
100
AcDbCircle
 10
6.799999999987733
 20
781.0000000000032
 30
0
 40
2.100000000000009
  0
CIRCLE
  5
20
100
AcDbEntity
  8
0
100
AcDbCircle
 10
6.79999999998833
 20
901.0000000000032
 30
0
 40
2.100000000000009
  0
CIRCLE
  5
21
100
AcDbEntity
  8
0
100
AcDbCircle
 10
6.799999999988927
 20
1021.000000000003
 30
0
 40
2.100000000000009
  0
LWPOLYLINE
  5
22
100
AcDbEntity
  8
0
100
AcDbPolyline
 90
4
 70
1
 10
2.529532139305957E-12
 20
1682.000000000009
 10
22.00000000000253
 20
1682.000000000009
 10
22.0000000000025
 20
1123.000000000009
 10
2.501110429875553E-12
 20
1123.000000000009
  0
CIRCLE
  5
23
100
AcDbEntity
  8
0
100
AcDbCircle
 10
15.20000000000041
 20
1582.500000000009
 30
0
 40
2.100000000000009
  0
CIRCLE
  5
24
100
AcDbEntity
  8
0
100
AcDbCircle
 10
15.20000000000041
 20
1462.500000000009
 30
0
 40
2.100000000000009
  0
CIRCLE
  5
25
100
AcDbEntity
  8
0
100
AcDbCircle
 10
15.20000000000039
 20
1342.500000000009
 30
0
 40
2.100000000000009
  0
CIRCLE
  5
26
100
AcDbEntity
  8
0
100
AcDbCircle
 10
15.20000000000039
 20
1222.500000000009
 30
0
 40
2.100000000000009
  0
LWPOLYLINE
  5
27
100
AcDbEntity
  8
0
100
AcDbPolyline
 90
4
 70
1
 10
21.99999999998658
 20
1684.500000000009
 10
-1.341504685115069E-11
 20
1684.50000000001
 10
-7.617018127348274E-12
 20
2243.50000000001
 10
21.99999999999238
 20
2243.500000000009
  0
CIRCLE
  5
28
100
AcDbEntity
  8
0
100
AcDbCircle
 10
6.799999999989723
 20
1784.00000000001
 30
0
 40
2.100000000000009
  0
CIRCLE
  5
29
100
AcDbEntity
  8
0
100
AcDbCircle
 10
6.799999999990973
 20
1904.00000000001
 30
0
 40
2.100000000000009
  0
CIRCLE
  5
2A
100
AcDbEntity
  8
0
100
AcDbCircle
 10
6.799999999992224
 20
2024.00000000001
 30
0
 40
2.100000000000009
  0
CIRCLE
  5
2B
100
AcDbEntity
  8
0
100
AcDbCircle
 10
6.799999999993446
 20
2144.00000000001
 30
0
 40
2.100000000000009
  0
LWPOLYLINE
  5
2C
100
AcDbEntity
  8
0
100
AcDbPolyline
 90
4
 70
1
 10
-7.787548383930698E-12
 20
2655.000000000013
 10
21.99999999999221
 20
2655.000000000013
 10
21.99999999998983
 20
2246.000000000013
 10
-1.006128513836302E-11
 20
2246.000000000013
  0
CIRCLE
  5
2D
100
AcDbEntity
  8
0
100
AcDbCircle
 10
15.19999999999163
 20
2330.500000000013
 30
0
 40
2.1
  0
CIRCLE
  5
2E
100
AcDbEntity
  8
0
100
AcDbCircle
 10
15.19999999999231
 20
2450.500000000013
 30
0
 40
2.1
  0
CIRCLE
  5
2F
100
AcDbEntity
  8
0
100
AcDbCircle
 10
15.19999999999294
 20
2570.500000000013
 30
0
 40
2.1
  0
LWPOLYLINE
  5
30
100
AcDbEntity
  8
0
100
AcDbPolyline
 90
4
 70
1
 10
-5.456968210637569E-12
 20
3066.500000000013
 10
21.99999999999454
 20
3066.500000000013
 10
21.99999999999216
 20
2657.500000000013
 10
-7.73070496506989E-12
 20
2657.500000000013
  0
CIRCLE
  5
31
100
AcDbEntity
  8
0
100
AcDbCircle
 10
15.19999999999396
 20
2742.000000000013
 30
0
 40
2.1
  0
CIRCLE
  5
32
100
AcDbEntity
  8
0
100
AcDbCircle
 10
15.19999999999465
 20
2862.000000000013
 30
0
 40
2.1
  0
CIRCLE
  5
33
100
AcDbEntity
  8
0
100
AcDbCircle
 10
15.19999999999527
 20
2982.000000000013
 30
0
 40
2.1
  0
LWPOLYLINE
  5
34
100
AcDbEntity
  8
0
100
AcDbPolyline
 90
4
 70
1
 10
-3.126388037344441E-12
 20
3478.000000000013
 10
21.99999999999687
 20
3478.000000000013
 10
21.99999999999449
 20
3069.000000000013
 10
-5.400124791776761E-12
 20
3069.000000000013
  0
CIRCLE
  5
35
100
AcDbEntity
  8
0
100
AcDbCircle
 10
15.19999999999629
 20
3153.500000000013
 30
0
 40
2.1
  0
CIRCLE
  5
36
100
AcDbEntity
  8
0
100
AcDbCircle
 10
15.19999999999698
 20
3273.500000000013
 30
0
 40
2.1
  0
CIRCLE
  5
37
100
AcDbEntity
  8
0
100
AcDbCircle
 10
15.1999999999976
 20
3393.500000000013
 30
0
 40
2.1
  0
LWPOLYLINE
  5
38
100
AcDbEntity
  8
0
100
AcDbPolyline
 90
4
 70
1
 10
-2.842170943040401E-13
 20
3889.500000000013
 10
21.99999999999972
 20
3889.500000000013
 10
21.99999999999733
 20
3480.500000000013
 10
-2.557953848736361E-12
 20
3480.500000000013
  0
CIRCLE
  5
39
100
AcDbEntity
  8
0
100
AcDbCircle
 10
15.19999999999914
 20
3565.000000000013
 30
0
 40
2.1
  0
CIRCLE
  5
3A
100
AcDbEntity
  8
0
100
AcDbCircle
 10
15.19999999999982
 20
3685.000000000013
 30
0
 40
2.1
  0
CIRCLE
  5
3B
100
AcDbEntity
  8
0
100
AcDbCircle
 10
15.20000000000044
 20
3805.000000000013
 30
0
 40
2.1
  0
ENDSEC
  0
SECTION
  2
OBJECTS
  0
DICTIONARY
  5
3C
100
AcDbDictionary
  3
ACAD_GROUP
350
3D
  3
ACAD_MLINESTYLE
350
3E
  0
DICTIONARY
  5
3D
100
AcDbDictionary
  0
DICTIONARY
  5
3E
100
AcDbDictionary
  0
ENDSEC
  0
EOF
